<?xml version="1.0" encoding="UTF-8" standalone="no"?>
<!DOCTYPE svg PUBLIC "-//W3C//DTD SVG 1.1//EN"
 "http://www.w3.org/Graphics/SVG/1.1/DTD/svg11.dtd">
<!-- Generated by graphviz version 2.38.0 (20140413.2041)
 -->
<!-- Title: controllers_diagram Pages: 1 -->
<svg width="677pt" height="661pt"
 viewBox="0.00 0.00 677.00 661.50" xmlns="http://www.w3.org/2000/svg" xmlns:xlink="http://www.w3.org/1999/xlink">
<g id="graph0" class="graph" transform="scale(1 1) rotate(0) translate(260.5 386)">
<title>controllers_diagram</title>
<polygon fill="none" stroke="none" points="-260.5,275.5 -260.5,-386 416.5,-386 416.5,275.5 -260.5,275.5"/>
<!-- _diagram_info -->
<g id="node1" class="node"><title>_diagram_info</title>
<text text-anchor="start" x="88" y="128.4" font-family="Times,serif" font-size="13.00">Controllers diagram</text>
<text text-anchor="start" x="88" y="142.4" font-family="Times,serif" font-size="13.00">Date: Jun 12 2017 &#45; 17:51</text>
<text text-anchor="start" x="88" y="156.4" font-family="Times,serif" font-size="13.00">Migration version: 20170605042447</text>
<text text-anchor="start" x="88" y="170.4" font-family="Times,serif" font-size="13.00">Generated by RailRoady 1.5.2</text>
<text text-anchor="start" x="88" y="184.4" font-family="Times,serif" font-size="13.00">http://railroady.prestonlee.com</text>
</g>
<!-- ApplicationController -->
<g id="node2" class="node"><title>ApplicationController</title>
<path fill="none" stroke="black" d="M-244,-257C-244,-257 -132,-257 -132,-257 -126,-257 -120,-263 -120,-269 -120,-269 -120,-339 -120,-339 -120,-345 -126,-351 -132,-351 -132,-351 -244,-351 -244,-351 -250,-351 -256,-345 -256,-339 -256,-339 -256,-269 -256,-269 -256,-263 -250,-257 -244,-257"/>
<text text-anchor="middle" x="-188" y="-335.8" font-family="Times,serif" font-size="14.00">ApplicationController</text>
<polyline fill="none" stroke="black" points="-256,-328 -120,-328 "/>
<polyline fill="none" stroke="black" points="-256,-304 -120,-304 "/>
<polyline fill="none" stroke="black" points="-256,-280 -120,-280 "/>
<text text-anchor="start" x="-248" y="-264.8" font-family="Times,serif" font-size="14.00">_layout</text>
</g>
<!-- Users::OmniauthCallbacksController -->
<g id="node3" class="node"><title>Users::OmniauthCallbacksController</title>
<path fill="none" stroke="black" d="M172,-161C172,-161 366,-161 366,-161 372,-161 378,-167 378,-173 378,-173 378,-243 378,-243 378,-249 372,-255 366,-255 366,-255 172,-255 172,-255 166,-255 160,-249 160,-243 160,-243 160,-173 160,-173 160,-167 166,-161 172,-161"/>
<text text-anchor="middle" x="269" y="-239.8" font-family="Times,serif" font-size="14.00">Users::OmniauthCallbacksController</text>
<polyline fill="none" stroke="black" points="160,-232 378,-232 "/>
<polyline fill="none" stroke="black" points="160,-208 378,-208 "/>
<polyline fill="none" stroke="black" points="160,-184 378,-184 "/>
<text text-anchor="start" x="168" y="-168.8" font-family="Times,serif" font-size="14.00">_layout</text>
</g>
<!-- Users::RegistrationsController -->
<g id="node4" class="node"><title>Users::RegistrationsController</title>
<path fill="none" stroke="black" d="M-68,-161C-68,-161 114,-161 114,-161 120,-161 126,-167 126,-173 126,-173 126,-257 126,-257 126,-263 120,-269 114,-269 114,-269 -68,-269 -68,-269 -74,-269 -80,-263 -80,-257 -80,-257 -80,-173 -80,-173 -80,-167 -74,-161 -68,-161"/>
<text text-anchor="middle" x="23" y="-253.8" font-family="Times,serif" font-size="14.00">Users::RegistrationsController</text>
<polyline fill="none" stroke="black" points="-80,-246 126,-246 "/>
<polyline fill="none" stroke="black" points="-80,-222 126,-222 "/>
<text text-anchor="start" x="-72" y="-206.8" font-family="Times,serif" font-size="14.00">configure_account_update_params</text>
<text text-anchor="start" x="-72" y="-191.8" font-family="Times,serif" font-size="14.00">configure_sign_up_params</text>
<polyline fill="none" stroke="black" points="-80,-184 126,-184 "/>
<text text-anchor="start" x="-72" y="-168.8" font-family="Times,serif" font-size="14.00">_layout</text>
</g>
<!-- Users::UnlocksController -->
<g id="node5" class="node"><title>Users::UnlocksController</title>
<path fill="none" stroke="black" d="M-243.5,95C-243.5,95 -112.5,95 -112.5,95 -106.5,95 -100.5,89 -100.5,83 -100.5,83 -100.5,13 -100.5,13 -100.5,7 -106.5,1 -112.5,1 -112.5,1 -243.5,1 -243.5,1 -249.5,1 -255.5,7 -255.5,13 -255.5,13 -255.5,83 -255.5,83 -255.5,89 -249.5,95 -243.5,95"/>
<text text-anchor="middle" x="-178" y="16.2" font-family="Times,serif" font-size="14.00">Users::UnlocksController</text>
<polyline fill="none" stroke="black" points="-255.5,24 -100.5,24 "/>
<polyline fill="none" stroke="black" points="-255.5,48 -100.5,48 "/>
<polyline fill="none" stroke="black" points="-255.5,72 -100.5,72 "/>
<text text-anchor="start" x="-247.5" y="87.2" font-family="Times,serif" font-size="14.00">_layout</text>
</g>
<!-- Users::ConfirmationsController -->
<g id="node6" class="node"><title>Users::ConfirmationsController</title>
<path fill="none" stroke="black" d="M220.5,79C220.5,79 385.5,79 385.5,79 391.5,79 397.5,73 397.5,67 397.5,67 397.5,-3 397.5,-3 397.5,-9 391.5,-15 385.5,-15 385.5,-15 220.5,-15 220.5,-15 214.5,-15 208.5,-9 208.5,-3 208.5,-3 208.5,67 208.5,67 208.5,73 214.5,79 220.5,79"/>
<text text-anchor="middle" x="303" y="0.2" font-family="Times,serif" font-size="14.00">Users::ConfirmationsController</text>
<polyline fill="none" stroke="black" points="208.5,8 397.5,8 "/>
<polyline fill="none" stroke="black" points="208.5,32 397.5,32 "/>
<polyline fill="none" stroke="black" points="208.5,56 397.5,56 "/>
<text text-anchor="start" x="216.5" y="71.2" font-family="Times,serif" font-size="14.00">_layout</text>
</g>
<!-- Users::PasswordsController -->
<g id="node7" class="node"><title>Users::PasswordsController</title>
<path fill="none" stroke="black" d="M-244.5,-33C-244.5,-33 -101.5,-33 -101.5,-33 -95.5,-33 -89.5,-39 -89.5,-45 -89.5,-45 -89.5,-115 -89.5,-115 -89.5,-121 -95.5,-127 -101.5,-127 -101.5,-127 -244.5,-127 -244.5,-127 -250.5,-127 -256.5,-121 -256.5,-115 -256.5,-115 -256.5,-45 -256.5,-45 -256.5,-39 -250.5,-33 -244.5,-33"/>
<text text-anchor="middle" x="-173" y="-111.8" font-family="Times,serif" font-size="14.00">Users::PasswordsController</text>
<polyline fill="none" stroke="black" points="-256.5,-104 -89.5,-104 "/>
<polyline fill="none" stroke="black" points="-256.5,-80 -89.5,-80 "/>
<polyline fill="none" stroke="black" points="-256.5,-56 -89.5,-56 "/>
<text text-anchor="start" x="-248.5" y="-40.8" font-family="Times,serif" font-size="14.00">_layout</text>
</g>
<!-- Users::SessionsController -->
<g id="node8" class="node"><title>Users::SessionsController</title>
<path fill="none" stroke="black" d="M-243.5,223C-243.5,223 -110.5,223 -110.5,223 -104.5,223 -98.5,217 -98.5,211 -98.5,211 -98.5,141 -98.5,141 -98.5,135 -104.5,129 -110.5,129 -110.5,129 -243.5,129 -243.5,129 -249.5,129 -255.5,135 -255.5,141 -255.5,141 -255.5,211 -255.5,211 -255.5,217 -249.5,223 -243.5,223"/>
<text text-anchor="middle" x="-177" y="144.2" font-family="Times,serif" font-size="14.00">Users::SessionsController</text>
<polyline fill="none" stroke="black" points="-255.5,152 -98.5,152 "/>
<polyline fill="none" stroke="black" points="-255.5,176 -98.5,176 "/>
<polyline fill="none" stroke="black" points="-255.5,200 -98.5,200 "/>
<text text-anchor="start" x="-247.5" y="215.2" font-family="Times,serif" font-size="14.00">_layout</text>
</g>
<!-- TagsController -->
<g id="node9" class="node"><title>TagsController</title>
<path fill="none" stroke="black" d="M92,79.5C92,79.5 166,79.5 166,79.5 172,79.5 178,73.5 178,67.5 178,67.5 178,-121.5 178,-121.5 178,-127.5 172,-133.5 166,-133.5 166,-133.5 92,-133.5 92,-133.5 86,-133.5 80,-127.5 80,-121.5 80,-121.5 80,67.5 80,67.5 80,73.5 86,79.5 92,79.5"/>
<text text-anchor="middle" x="129" y="-118.3" font-family="Times,serif" font-size="14.00">TagsController</text>
<polyline fill="none" stroke="black" points="80,-110.5 178,-110.5 "/>
<text text-anchor="start" x="88" y="-95.3" font-family="Times,serif" font-size="14.00">create</text>
<text text-anchor="start" x="88" y="-80.3" font-family="Times,serif" font-size="14.00">destroy</text>
<text text-anchor="start" x="88" y="-65.3" font-family="Times,serif" font-size="14.00">edit</text>
<text text-anchor="start" x="88" y="-50.3" font-family="Times,serif" font-size="14.00">index</text>
<text text-anchor="start" x="88" y="-35.3" font-family="Times,serif" font-size="14.00">new</text>
<text text-anchor="start" x="88" y="-20.3" font-family="Times,serif" font-size="14.00">show</text>
<text text-anchor="start" x="88" y="-5.3" font-family="Times,serif" font-size="14.00">update</text>
<polyline fill="none" stroke="black" points="80,2.5 178,2.5 "/>
<polyline fill="none" stroke="black" points="80,26.5 178,26.5 "/>
<text text-anchor="start" x="88" y="41.7" font-family="Times,serif" font-size="14.00">_layout</text>
<text text-anchor="start" x="88" y="56.7" font-family="Times,serif" font-size="14.00">set_tag</text>
<text text-anchor="start" x="88" y="71.7" font-family="Times,serif" font-size="14.00">tag_params</text>
</g>
<!-- UsersController -->
<g id="node10" class="node"><title>UsersController</title>
<path fill="none" stroke="black" d="M-51.5,271C-51.5,271 27.5,271 27.5,271 33.5,271 39.5,265 39.5,259 39.5,259 39.5,175 39.5,175 39.5,169 33.5,163 27.5,163 27.5,163 -51.5,163 -51.5,163 -57.5,163 -63.5,169 -63.5,175 -63.5,175 -63.5,259 -63.5,259 -63.5,265 -57.5,271 -51.5,271"/>
<text text-anchor="middle" x="-12" y="178.2" font-family="Times,serif" font-size="14.00">UsersController</text>
<polyline fill="none" stroke="black" points="-63.5,186 39.5,186 "/>
<text text-anchor="start" x="-55.5" y="201.2" font-family="Times,serif" font-size="14.00">index</text>
<text text-anchor="start" x="-55.5" y="216.2" font-family="Times,serif" font-size="14.00">show</text>
<polyline fill="none" stroke="black" points="-63.5,224 39.5,224 "/>
<polyline fill="none" stroke="black" points="-63.5,248 39.5,248 "/>
<text text-anchor="start" x="-55.5" y="263.2" font-family="Times,serif" font-size="14.00">_layout</text>
</g>
<!-- WelcomeController -->
<g id="node11" class="node"><title>WelcomeController</title>
<path fill="none" stroke="black" d="M299.5,-288.5C299.5,-288.5 400.5,-288.5 400.5,-288.5 406.5,-288.5 412.5,-294.5 412.5,-300.5 412.5,-300.5 412.5,-369.5 412.5,-369.5 412.5,-375.5 406.5,-381.5 400.5,-381.5 400.5,-381.5 299.5,-381.5 299.5,-381.5 293.5,-381.5 287.5,-375.5 287.5,-369.5 287.5,-369.5 287.5,-300.5 287.5,-300.5 287.5,-294.5 293.5,-288.5 299.5,-288.5"/>
<text text-anchor="middle" x="350" y="-366.3" font-family="Times,serif" font-size="14.00">WelcomeController</text>
<polyline fill="none" stroke="black" points="287.5,-358.5 412.5,-358.5 "/>
<text text-anchor="start" x="295.5" y="-343.3" font-family="Times,serif" font-size="14.00">index</text>
<polyline fill="none" stroke="black" points="287.5,-335.5 412.5,-335.5 "/>
<polyline fill="none" stroke="black" points="287.5,-311.5 412.5,-311.5 "/>
<text text-anchor="start" x="295.5" y="-296.3" font-family="Times,serif" font-size="14.00">_layout</text>
</g>
<!-- PhotosController -->
<g id="node12" class="node"><title>PhotosController</title>
<path fill="none" stroke="black" d="M-51.5,127.5C-51.5,127.5 33.5,127.5 33.5,127.5 39.5,127.5 45.5,121.5 45.5,115.5 45.5,115.5 45.5,-103.5 45.5,-103.5 45.5,-109.5 39.5,-115.5 33.5,-115.5 33.5,-115.5 -51.5,-115.5 -51.5,-115.5 -57.5,-115.5 -63.5,-109.5 -63.5,-103.5 -63.5,-103.5 -63.5,115.5 -63.5,115.5 -63.5,121.5 -57.5,127.5 -51.5,127.5"/>
<text text-anchor="middle" x="-9" y="-100.3" font-family="Times,serif" font-size="14.00">PhotosController</text>
<polyline fill="none" stroke="black" points="-63.5,-92.5 45.5,-92.5 "/>
<text text-anchor="start" x="-55.5" y="-77.3" font-family="Times,serif" font-size="14.00">create</text>
<text text-anchor="start" x="-55.5" y="-62.3" font-family="Times,serif" font-size="14.00">destroy</text>
<text text-anchor="start" x="-55.5" y="-47.3" font-family="Times,serif" font-size="14.00">edit</text>
<text text-anchor="start" x="-55.5" y="-32.3" font-family="Times,serif" font-size="14.00">index</text>
<text text-anchor="start" x="-55.5" y="-17.3" font-family="Times,serif" font-size="14.00">myphotos</text>
<text text-anchor="start" x="-55.5" y="-2.3" font-family="Times,serif" font-size="14.00">new</text>
<text text-anchor="start" x="-55.5" y="12.7" font-family="Times,serif" font-size="14.00">photosof</text>
<text text-anchor="start" x="-55.5" y="27.7" font-family="Times,serif" font-size="14.00">show</text>
<text text-anchor="start" x="-55.5" y="42.7" font-family="Times,serif" font-size="14.00">update</text>
<polyline fill="none" stroke="black" points="-63.5,50.5 45.5,50.5 "/>
<polyline fill="none" stroke="black" points="-63.5,74.5 45.5,74.5 "/>
<text text-anchor="start" x="-55.5" y="89.7" font-family="Times,serif" font-size="14.00">_layout</text>
<text text-anchor="start" x="-55.5" y="104.7" font-family="Times,serif" font-size="14.00">photo_params</text>
<text text-anchor="start" x="-55.5" y="119.7" font-family="Times,serif" font-size="14.00">set_photo</text>
</g>
</g>
</svg>
