<?xml version="1.0" encoding="UTF-8" standalone="no"?>
<!DOCTYPE svg PUBLIC "-//W3C//DTD SVG 1.1//EN"
 "http://www.w3.org/Graphics/SVG/1.1/DTD/svg11.dtd">
<!-- Generated by graphviz version 2.38.0 (20140413.2041)
 -->
<!-- Title: models_diagram Pages: 1 -->
<svg width="799pt" height="709pt"
 viewBox="0.00 0.00 799.34 709.00" xmlns="http://www.w3.org/2000/svg" xmlns:xlink="http://www.w3.org/1999/xlink">
<g id="graph0" class="graph" transform="scale(1 1) rotate(0) translate(4 705)">
<title>models_diagram</title>
<polygon fill="none" stroke="none" points="-4,4 -4,-705 795.343,-705 795.343,4 -4,4"/>
<!-- _diagram_info -->
<g id="node1" class="node"><title>_diagram_info</title>
<text text-anchor="start" x="8" y="-589.6" font-family="Times,serif" font-size="13.00">Models diagram</text>
<text text-anchor="start" x="8" y="-575.6" font-family="Times,serif" font-size="13.00">Date: Jun 05 2017 &#45; 13:36</text>
<text text-anchor="start" x="8" y="-561.6" font-family="Times,serif" font-size="13.00">Migration version: 20170605042447</text>
<text text-anchor="start" x="8" y="-547.6" font-family="Times,serif" font-size="13.00">Generated by RailRoady 1.5.2</text>
<text text-anchor="start" x="8" y="-533.6" font-family="Times,serif" font-size="13.00">http://railroady.prestonlee.com</text>
</g>
<!-- PhotoTag -->
<g id="node2" class="node"><title>PhotoTag</title>
<path fill="none" stroke="black" d="M279,-0.5C279,-0.5 499,-0.5 499,-0.5 505,-0.5 511,-6.5 511,-12.5 511,-12.5 511,-94.5 511,-94.5 511,-100.5 505,-106.5 499,-106.5 499,-106.5 279,-106.5 279,-106.5 273,-106.5 267,-100.5 267,-94.5 267,-94.5 267,-12.5 267,-12.5 267,-6.5 273,-0.5 279,-0.5"/>
<text text-anchor="middle" x="389" y="-91.3" font-family="Times,serif" font-size="14.00">PhotoTag</text>
<polyline fill="none" stroke="black" points="267,-83.5 511,-83.5 "/>
<text text-anchor="start" x="275" y="-68.3" font-family="Times,serif" font-size="14.00">id :integer</text>
<text text-anchor="start" x="275" y="-53.3" font-family="Times,serif" font-size="14.00">photo_id :integer</text>
<text text-anchor="start" x="275" y="-38.3" font-family="Times,serif" font-size="14.00">tag_id :integer</text>
<text text-anchor="start" x="275" y="-23.3" font-family="Times,serif" font-size="14.00">created_at :timestamp without time zone</text>
<text text-anchor="start" x="275" y="-8.3" font-family="Times,serif" font-size="14.00">updated_at :timestamp without time zone</text>
</g>
<!-- Photo -->
<g id="node3" class="node"><title>Photo</title>
<path fill="none" stroke="black" d="M279,-271.5C279,-271.5 499,-271.5 499,-271.5 505,-271.5 511,-277.5 511,-283.5 511,-283.5 511,-380.5 511,-380.5 511,-386.5 505,-392.5 499,-392.5 499,-392.5 279,-392.5 279,-392.5 273,-392.5 267,-386.5 267,-380.5 267,-380.5 267,-283.5 267,-283.5 267,-277.5 273,-271.5 279,-271.5"/>
<text text-anchor="middle" x="389" y="-377.3" font-family="Times,serif" font-size="14.00">Photo</text>
<polyline fill="none" stroke="black" points="267,-369.5 511,-369.5 "/>
<text text-anchor="start" x="275" y="-354.3" font-family="Times,serif" font-size="14.00">id :integer</text>
<text text-anchor="start" x="275" y="-339.3" font-family="Times,serif" font-size="14.00">content :character varying</text>
<text text-anchor="start" x="275" y="-324.3" font-family="Times,serif" font-size="14.00">image :character varying</text>
<text text-anchor="start" x="275" y="-309.3" font-family="Times,serif" font-size="14.00">created_at :timestamp without time zone</text>
<text text-anchor="start" x="275" y="-294.3" font-family="Times,serif" font-size="14.00">updated_at :timestamp without time zone</text>
<text text-anchor="start" x="275" y="-279.3" font-family="Times,serif" font-size="14.00">user_id :integer</text>
</g>
<!-- Photo&#45;&gt;PhotoTag -->
<g id="edge1" class="edge"><title>Photo&#45;&gt;PhotoTag</title>
<path fill="none" stroke="#ca981f" d="M344.239,-264.259C339.632,-254.768 335.668,-244.871 333,-235 322.329,-195.528 321.618,-182.273 333,-143 335.667,-133.798 339.609,-124.634 344.188,-115.883"/>
<ellipse fill="none" stroke="#ca981f" cx="346.068" cy="-267.863" rx="4.00002" ry="4.00002"/>
<polygon fill="#ca981f" stroke="#ca981f" points="344.306,-115.669 353.097,-109.114 346.734,-111.299 349.163,-106.928 349.163,-106.928 349.163,-106.928 346.734,-111.299 345.229,-104.742 344.306,-115.669 344.306,-115.669"/>
</g>
<!-- Tag -->
<g id="node6" class="node"><title>Tag</title>
<path fill="none" stroke="black" d="M354,-143.5C354,-143.5 574,-143.5 574,-143.5 580,-143.5 586,-149.5 586,-155.5 586,-155.5 586,-222.5 586,-222.5 586,-228.5 580,-234.5 574,-234.5 574,-234.5 354,-234.5 354,-234.5 348,-234.5 342,-228.5 342,-222.5 342,-222.5 342,-155.5 342,-155.5 342,-149.5 348,-143.5 354,-143.5"/>
<text text-anchor="middle" x="464" y="-219.3" font-family="Times,serif" font-size="14.00">Tag</text>
<polyline fill="none" stroke="black" points="342,-211.5 586,-211.5 "/>
<text text-anchor="start" x="350" y="-196.3" font-family="Times,serif" font-size="14.00">id :integer</text>
<text text-anchor="start" x="350" y="-181.3" font-family="Times,serif" font-size="14.00">name :character varying</text>
<text text-anchor="start" x="350" y="-166.3" font-family="Times,serif" font-size="14.00">created_at :timestamp without time zone</text>
<text text-anchor="start" x="350" y="-151.3" font-family="Times,serif" font-size="14.00">updated_at :timestamp without time zone</text>
</g>
<!-- Photo&#45;&gt;Tag -->
<g id="edge2" class="edge"><title>Photo&#45;&gt;Tag</title>
<path fill="none" stroke="#7bc0f6" d="M425.535,-262.313C428.784,-256.205 432.043,-250.079 435.214,-244.118"/>
<polygon fill="#7bc0f6" stroke="#7bc0f6" points="425.503,-262.375 416.834,-269.09 423.155,-266.789 420.807,-271.203 420.807,-271.203 420.807,-271.203 423.155,-266.789 424.78,-273.317 425.503,-262.375 425.503,-262.375"/>
<polygon fill="#7bc0f6" stroke="#7bc0f6" points="435.414,-243.742 444.083,-237.026 437.762,-239.327 440.11,-234.913 440.11,-234.913 440.11,-234.913 437.762,-239.327 436.137,-232.8 435.414,-243.742 435.414,-243.742"/>
</g>
<!-- Ability -->
<g id="node4" class="node"><title>Ability</title>
<polygon fill="none" stroke="black" points="563.5,-542 563.5,-588 618.5,-588 618.5,-542 563.5,-542"/>
<text text-anchor="middle" x="591" y="-572.8" font-family="Times,serif" font-size="14.00">Ability</text>
<polyline fill="none" stroke="black" points="563.5,-565 618.5,-565 "/>
<text text-anchor="middle" x="591" y="-549.8" font-family="Times,serif" font-size="14.00"> </text>
</g>
<!-- ApplicationRecord -->
<g id="node5" class="node"><title>ApplicationRecord</title>
<ellipse fill="none" stroke="black" cx="714" cy="-565" rx="77.1866" ry="18"/>
<text text-anchor="middle" x="714" y="-561.3" font-family="Times,serif" font-size="14.00">ApplicationRecord</text>
</g>
<!-- Tag&#45;&gt;PhotoTag -->
<g id="edge3" class="edge"><title>Tag&#45;&gt;PhotoTag</title>
<path fill="none" stroke="#c4d815" d="M434.762,-135.956C431.067,-129.379 427.259,-122.602 423.493,-115.897"/>
<ellipse fill="none" stroke="#c4d815" cx="436.858" cy="-139.688" rx="4.00002" ry="4.00002"/>
<polygon fill="#c4d815" stroke="#c4d815" points="423.294,-115.543 422.319,-104.62 420.845,-111.183 418.396,-106.824 418.396,-106.824 418.396,-106.824 420.845,-111.183 414.472,-109.028 423.294,-115.543 423.294,-115.543"/>
</g>
<!-- User -->
<g id="node7" class="node"><title>User</title>
<path fill="none" stroke="black" d="M244.5,-429.5C244.5,-429.5 533.5,-429.5 533.5,-429.5 539.5,-429.5 545.5,-435.5 545.5,-441.5 545.5,-441.5 545.5,-688.5 545.5,-688.5 545.5,-694.5 539.5,-700.5 533.5,-700.5 533.5,-700.5 244.5,-700.5 244.5,-700.5 238.5,-700.5 232.5,-694.5 232.5,-688.5 232.5,-688.5 232.5,-441.5 232.5,-441.5 232.5,-435.5 238.5,-429.5 244.5,-429.5"/>
<text text-anchor="middle" x="389" y="-685.3" font-family="Times,serif" font-size="14.00">User</text>
<polyline fill="none" stroke="black" points="232.5,-677.5 545.5,-677.5 "/>
<text text-anchor="start" x="240.5" y="-662.3" font-family="Times,serif" font-size="14.00">id :integer</text>
<text text-anchor="start" x="240.5" y="-647.3" font-family="Times,serif" font-size="14.00">email :character varying</text>
<text text-anchor="start" x="240.5" y="-632.3" font-family="Times,serif" font-size="14.00">encrypted_password :character varying</text>
<text text-anchor="start" x="240.5" y="-617.3" font-family="Times,serif" font-size="14.00">reset_password_token :character varying</text>
<text text-anchor="start" x="240.5" y="-602.3" font-family="Times,serif" font-size="14.00">reset_password_sent_at :timestamp without time zone</text>
<text text-anchor="start" x="240.5" y="-587.3" font-family="Times,serif" font-size="14.00">remember_created_at :timestamp without time zone</text>
<text text-anchor="start" x="240.5" y="-572.3" font-family="Times,serif" font-size="14.00">sign_in_count :integer</text>
<text text-anchor="start" x="240.5" y="-557.3" font-family="Times,serif" font-size="14.00">current_sign_in_at :timestamp without time zone</text>
<text text-anchor="start" x="240.5" y="-542.3" font-family="Times,serif" font-size="14.00">last_sign_in_at :timestamp without time zone</text>
<text text-anchor="start" x="240.5" y="-527.3" font-family="Times,serif" font-size="14.00">current_sign_in_ip :inet</text>
<text text-anchor="start" x="240.5" y="-512.3" font-family="Times,serif" font-size="14.00">last_sign_in_ip :inet</text>
<text text-anchor="start" x="240.5" y="-497.3" font-family="Times,serif" font-size="14.00">created_at :timestamp without time zone</text>
<text text-anchor="start" x="240.5" y="-482.3" font-family="Times,serif" font-size="14.00">updated_at :timestamp without time zone</text>
<text text-anchor="start" x="240.5" y="-467.3" font-family="Times,serif" font-size="14.00">name :character varying</text>
<text text-anchor="start" x="240.5" y="-452.3" font-family="Times,serif" font-size="14.00">age :integer</text>
<text text-anchor="start" x="240.5" y="-437.3" font-family="Times,serif" font-size="14.00">role :integer</text>
</g>
<!-- User&#45;&gt;Photo -->
<g id="edge4" class="edge"><title>User&#45;&gt;Photo</title>
<path fill="none" stroke="#32d879" d="M389,-421.26C389,-415.044 389,-408.939 389,-403.023"/>
<ellipse fill="none" stroke="#32d879" cx="389" cy="-425.292" rx="4" ry="4"/>
<polygon fill="#32d879" stroke="#32d879" points="389,-402.597 393.5,-392.597 389,-397.597 389,-392.597 389,-392.597 389,-392.597 389,-397.597 384.5,-392.597 389,-402.597 389,-402.597"/>
</g>
</g>
</svg>
