<?xml version="1.0" encoding="UTF-8" standalone="no"?>
<!DOCTYPE svg PUBLIC "-//W3C//DTD SVG 1.1//EN"
 "http://www.w3.org/Graphics/SVG/1.1/DTD/svg11.dtd">
<!-- Generated by graphviz version 2.38.0 (20140413.2041)
 -->
<!-- Title: models_diagram Pages: 1 -->
<svg width="540pt" height="302pt"
 viewBox="0.00 0.00 540.34 302.00" xmlns="http://www.w3.org/2000/svg" xmlns:xlink="http://www.w3.org/1999/xlink">
<g id="graph0" class="graph" transform="scale(1 1) rotate(0) translate(4 298)">
<title>models_diagram</title>
<polygon fill="none" stroke="none" points="-4,4 -4,-298 536.343,-298 536.343,4 -4,4"/>
<!-- _diagram_info -->
<g id="node1" class="node"><title>_diagram_info</title>
<text text-anchor="start" x="8" y="-279.6" font-family="Times,serif" font-size="13.00">Models diagram</text>
<text text-anchor="start" x="8" y="-265.6" font-family="Times,serif" font-size="13.00">Date: Jun 05 2017 &#45; 13:36</text>
<text text-anchor="start" x="8" y="-251.6" font-family="Times,serif" font-size="13.00">Migration version: 20170605042447</text>
<text text-anchor="start" x="8" y="-237.6" font-family="Times,serif" font-size="13.00">Generated by RailRoady 1.5.2</text>
<text text-anchor="start" x="8" y="-223.6" font-family="Times,serif" font-size="13.00">http://railroady.prestonlee.com</text>
</g>
<!-- PhotoTag -->
<g id="node2" class="node"><title>PhotoTag</title>
<ellipse fill="none" stroke="black" cx="259" cy="-18" rx="44.6926" ry="18"/>
<text text-anchor="middle" x="259" y="-14.3" font-family="Times,serif" font-size="14.00">PhotoTag</text>
</g>
<!-- Photo -->
<g id="node3" class="node"><title>Photo</title>
<ellipse fill="none" stroke="black" cx="259" cy="-162" rx="31.3957" ry="18"/>
<text text-anchor="middle" x="259" y="-158.3" font-family="Times,serif" font-size="14.00">Photo</text>
</g>
<!-- Photo&#45;&gt;PhotoTag -->
<g id="edge1" class="edge"><title>Photo&#45;&gt;PhotoTag</title>
<path fill="none" stroke="#a44c5d" d="M254.421,-135.884C253.029,-127.096 251.686,-117.142 251,-108 249.803,-92.0449 249.803,-87.9551 251,-72 251.637,-63.5179 252.838,-54.3361 254.121,-46.0356"/>
<ellipse fill="none" stroke="#a44c5d" cx="255.096" cy="-139.942" rx="4.00001" ry="4.00001"/>
<polygon fill="#a44c5d" stroke="#a44c5d" points="254.13,-45.9796 260.192,-36.8417 254.941,-41.0458 255.752,-36.1119 255.752,-36.1119 255.752,-36.1119 254.941,-41.0458 251.311,-35.3822 254.13,-45.9796 254.13,-45.9796"/>
</g>
<!-- Tag -->
<g id="node6" class="node"><title>Tag</title>
<ellipse fill="none" stroke="black" cx="287" cy="-90" rx="27" ry="18"/>
<text text-anchor="middle" x="287" y="-86.3" font-family="Times,serif" font-size="14.00">Tag</text>
</g>
<!-- Photo&#45;&gt;Tag -->
<g id="edge2" class="edge"><title>Photo&#45;&gt;Tag</title>
<path fill="none" stroke="#530db9" d="M269.435,-134.912C271.791,-129.022 274.291,-122.772 276.644,-116.891"/>
<polygon fill="#530db9" stroke="#530db9" points="269.35,-135.126 261.457,-142.74 267.493,-139.769 265.636,-144.411 265.636,-144.411 265.636,-144.411 267.493,-139.769 269.814,-146.082 269.35,-135.126 269.35,-135.126"/>
<polygon fill="#530db9" stroke="#530db9" points="276.698,-116.755 284.59,-109.141 278.555,-112.112 280.412,-107.47 280.412,-107.47 280.412,-107.47 278.555,-112.112 276.234,-105.799 276.698,-116.755 276.698,-116.755"/>
</g>
<!-- Ability -->
<g id="node4" class="node"><title>Ability</title>
<polygon fill="none" stroke="black" points="359.5,-273 304.5,-273 304.5,-237 359.5,-237 359.5,-273"/>
<text text-anchor="middle" x="332" y="-251.3" font-family="Times,serif" font-size="14.00">Ability</text>
</g>
<!-- ApplicationRecord -->
<g id="node5" class="node"><title>ApplicationRecord</title>
<ellipse fill="none" stroke="black" cx="455" cy="-255" rx="77.1866" ry="18"/>
<text text-anchor="middle" x="455" y="-251.3" font-family="Times,serif" font-size="14.00">ApplicationRecord</text>
</g>
<!-- Tag&#45;&gt;PhotoTag -->
<g id="edge3" class="edge"><title>Tag&#45;&gt;PhotoTag</title>
<path fill="none" stroke="#10e077" d="M277.311,-64.7779C274.818,-58.544 272.122,-51.8046 269.585,-45.4634"/>
<ellipse fill="none" stroke="#10e077" cx="278.879" cy="-68.6971" rx="4.00001" ry="4.00001"/>
<polygon fill="#10e077" stroke="#10e077" points="269.496,-45.241 269.961,-34.2849 267.639,-40.5986 265.782,-35.9562 265.782,-35.9562 265.782,-35.9562 267.639,-40.5986 261.604,-37.6275 269.496,-45.241 269.496,-45.241"/>
</g>
<!-- User -->
<g id="node7" class="node"><title>User</title>
<ellipse fill="none" stroke="black" cx="259" cy="-255" rx="27.0966" ry="18"/>
<text text-anchor="middle" x="259" y="-251.3" font-family="Times,serif" font-size="14.00">User</text>
</g>
<!-- User&#45;&gt;Photo -->
<g id="edge4" class="edge"><title>User&#45;&gt;Photo</title>
<path fill="none" stroke="#4b2ad5" d="M259,-228.729C259,-216.725 259,-202.362 259,-190.129"/>
<ellipse fill="none" stroke="#4b2ad5" cx="259" cy="-232.884" rx="4" ry="4"/>
<polygon fill="#4b2ad5" stroke="#4b2ad5" points="259,-190.04 263.5,-180.04 259,-185.04 259,-180.04 259,-180.04 259,-180.04 259,-185.04 254.5,-180.04 259,-190.04 259,-190.04"/>
</g>
</g>
</svg>
